STARTFONT 2.1
COMMENT Copyright (C) 1990-1991 EWT Consulting
COMMENT Portions Copyright (C) 1994-1995 Cronyx Ltd.
COMMENT Changes Copyright (C) 1996-1997 by Andrey A. Chernov, Moscow, Russia.
COMMENT Modified by Serge Vakulenko, <vak@cronyx.ru>
COMMENT Changes 1999 by Serge Winitzki.
COMMENT This software may be used, modified, copied, distributed, and sold,
COMMENT in both source and binary form provided that the copyright
COMMENT and these terms are retained. Under no circumstances is the author
COMMENT responsible for the proper functioning of this software, nor does
COMMENT the author assume any responsibility for damages incurred with its use.
COMMENT $XFree86$
FONT -Cronyx-Helvetica-Bold-O-Normal--34-240-100-100-P-130-KOI8-R
SIZE 24 96 96
FONTBOUNDINGBOX 40 33 -2 -7
STARTPROPERTIES 21
DEFAULT_CHAR 32
FONT_ASCENT 29
FONT_DESCENT 8
SPACING "P"
FONTNAME_REGISTRY ""
FOUNDRY "Cronyx"
FAMILY_NAME "Helvetica"
WEIGHT_NAME "Bold"
SLANT "O"
SETWIDTH_NAME "Normal"
ADD_STYLE_NAME ""
AVERAGE_WIDTH 130
CHARSET_REGISTRY "KOI8"
CHARSET_ENCODING "R"
PIXEL_SIZE 34
POINT_SIZE 240
RESOLUTION_X 100
RESOLUTION_Y 100
COPYRIGHT "Copyright (C) 1990, 1991 EWT Consulting, Portions Copyright (C) 1994 Cronyx Ltd., Portions Copyright (C) 1996-1997 by Andrey A. Chernov, Moscow, Russia."
_XMBDFED_INFO "Edited with xmbdfed 3.8."
_XFREE86_GLYPH_RANGES "32_126 149 154 156_158 163 179 191_255"
ENDPROPERTIES
CHARS 167
STARTCHAR space
ENCODING 32
SWIDTH 313 0
DWIDTH 10 0
BBX 0 0 -1 0
BITMAP
ENDCHAR
STARTCHAR exclam
ENCODING 33
SWIDTH 435 0
DWIDTH 10 0
BBX 9 23 2 0
BITMAP
0780
0780
0780
0780
0F00
0F00
0F00
0F00
1E00
1E00
1E00
1E00
3C00
3C00
1800
1800
3000
0000
0000
0000
F000
F000
F000
ENDCHAR
STARTCHAR quotedbl
ENCODING 34
SWIDTH 1500 0
DWIDTH 12 0
BBX 12 8 3 15
BITMAP
3CF0
79E0
79E0
79E0
79E0
6180
6180
6180
ENDCHAR
STARTCHAR numbersign
ENCODING 35
SWIDTH 826 0
DWIDTH 19 0
BBX 22 23 0 0
BITMAP
001C70
001C70
001C70
001C70
0079E0
0071C0
07FFF8
07FFF8
00E380
01E780
01C700
01C700
038E00
079E00
071C00
3FFFC0
7FFF80
0E3800
1E7800
1C7000
38E000
38E000
38E000
ENDCHAR
STARTCHAR dollar
ENCODING 36
SWIDTH 679 0
DWIDTH 19 0
BBX 24 28 0 -3
BITMAP
000380
000700
001FC0
007FF0
00FFF8
01EEF0
03CE78
03CE78
03CE00
03DC00
03FC00
01FC00
00FF00
007F80
003FC0
003BE0
0039E0
0071E0
3C71E0
3C71E0
3C71E0
3CE780
3EEF80
1FFF00
07FC00
01C000
01C000
01C000
ENDCHAR
STARTCHAR percent
ENCODING 37
SWIDTH 1261 0
DWIDTH 29 0
BBX 30 23 1 0
BITMAP
00F80780
03FE0700
038E0F00
07070E00
0E0E3C00
0E0E3800
0E0E7800
071C7000
0FF9E000
03E1C000
0003C000
00038000
000F0000
000E1F00
001E7FC0
001C71C0
0079C1C0
0071C1C0
00F1C1C0
00E1C1C0
03C1C700
0381FF00
07807C00
ENDCHAR
STARTCHAR ampersand
ENCODING 38
SWIDTH 1000 0
DWIDTH 23 0
BBX 26 23 1 0
BITMAP
001C0000
007F0000
00FF8000
00F78000
03C78000
03C78000
03C78000
01EF0000
03FE0000
01FC0000
03F80000
07FC0000
1F7CF000
1E3EF000
3E1FE000
3C0FE000
780F8000
78078000
7C0FC000
3E1FE000
7FFFE000
3FF9F000
0FE0F800
ENDCHAR
STARTCHAR quotesingle
ENCODING 39
SWIDTH 1000 0
DWIDTH 8 0
BBX 6 8 4 15
BITMAP
3C
78
78
78
78
60
60
60
ENDCHAR
STARTCHAR parenleft
ENCODING 40
SWIDTH 400 0
DWIDTH 12 0
BBX 15 30 1 -7
BITMAP
000E
001E
003C
00F0
00F0
01E0
01E0
03C0
0780
0780
0780
0F00
0F00
0F00
0F00
1E00
1E00
1E00
1E00
3C00
3C00
3C00
1E00
3C00
3C00
1E00
1E00
1E00
0F00
0700
ENDCHAR
STARTCHAR parenright
ENCODING 41
SWIDTH 400 0
DWIDTH 12 0
BBX 15 30 -1 -7
BITMAP
01C0
01E0
00F0
00F0
00F0
0078
0078
00F0
0078
0078
0078
00F0
00F0
00F0
00F0
01E0
01E0
01E0
01E0
03C0
03C0
03C0
0780
0F00
0F00
1E00
1E00
7800
F000
E000
ENDCHAR
STARTCHAR asterisk
ENCODING 42
SWIDTH 1444 0
DWIDTH 13 0
BBX 13 9 3 14
BITMAP
0380
0380
3FE0
7FF0
1FC0
0F80
3F80
7BC0
3180
ENDCHAR
STARTCHAR plus
ENCODING 43
SWIDTH 1053 0
DWIDTH 20 0
BBX 22 19 1 2
BITMAP
001E00
001E00
001E00
001E00
003C00
003C00
003C00
003C00
3FFFF0
3FFFF0
3FFFF0
007800
00F000
00F000
00F000
00F000
01E000
01E000
01E000
ENDCHAR
STARTCHAR comma
ENCODING 44
SWIDTH 1667 0
DWIDTH 10 0
BBX 5 6 2 -3
BITMAP
78
78
78
30
60
C0
ENDCHAR
STARTCHAR hyphen
ENCODING 45
SWIDTH 5500 0
DWIDTH 11 0
BBX 9 2 1 6
BITMAP
FF80
FF80
ENDCHAR
STARTCHAR period
ENCODING 46
SWIDTH 3333 0
DWIDTH 10 0
BBX 4 3 2 0
BITMAP
F0
F0
F0
ENDCHAR
STARTCHAR slash
ENCODING 47
SWIDTH 435 0
DWIDTH 10 0
BBX 15 23 -1 0
BITMAP
001E
001E
001E
003C
0078
0078
00F0
00F0
01E0
03C0
03C0
03C0
0780
0F00
0F00
0F00
3C00
3C00
3C00
3C00
F000
F000
F000
ENDCHAR
STARTCHAR zero
ENCODING 48
SWIDTH 826 0
DWIDTH 19 0
BBX 20 23 1 0
BITMAP
003E00
00FF80
01FFC0
03E3E0
0783C0
0F83E0
0F01E0
0F01E0
1E03C0
1E03C0
1E03C0
1E03C0
3C0780
3C0780
3C0780
3C0780
780F00
7C1F00
3C1E00
3E3E00
3FF800
1FF000
07C000
ENDCHAR
STARTCHAR one
ENCODING 49
SWIDTH 739 0
DWIDTH 17 0
BBX 12 23 3 0
BITMAP
0070
0070
00F0
01F0
0FE0
0FE0
0FE0
01E0
03C0
03C0
03C0
03C0
0780
0780
0780
0780
0F00
0F00
0F00
0F00
1E00
1E00
1E00
ENDCHAR
STARTCHAR two
ENCODING 50
SWIDTH 826 0
DWIDTH 19 0
BBX 22 23 0 0
BITMAP
001F00
007FC0
00FFE0
01F1F0
03C1E0
0780F0
0780F0
0000F0
0001E0
0003C0
0007C0
001F80
00FE00
01F800
03E000
07C000
1F0000
1E0000
3C0000
3C0000
FFFF80
FFFF80
FFFF80
ENDCHAR
STARTCHAR three
ENCODING 51
SWIDTH 826 0
DWIDTH 19 0
BBX 22 23 0 0
BITMAP
001F00
007FC0
00FFE0
01F1F0
03C1E0
0780F0
0780F0
0000F0
0003C0
003FC0
003F80
003FC0
0007C0
0003C0
0001E0
0001E0
7803C0
7803C0
3C0780
3E0F80
3FFE00
1FFC00
07F000
ENDCHAR
STARTCHAR four
ENCODING 52
SWIDTH 826 0
DWIDTH 19 0
BBX 22 23 0 0
BITMAP
0003E0
0007E0
0007E0
000FE0
003FC0
003FC0
007FC0
00FBC0
01E780
03E780
07C780
078780
1F0F00
1E0F00
3E0F00
3FFFE0
7FFFC0
7FFFC0
001E00
001E00
003C00
003C00
003C00
ENDCHAR
STARTCHAR five
ENCODING 53
SWIDTH 826 0
DWIDTH 19 0
BBX 22 23 0 0
BITMAP
00FFF8
00FFF8
00FFF8
00F000
03C000
03C000
03C000
03FF80
0FFFC0
0FFFE0
0F83E0
0F01F0
0001E0
0001E0
0001E0
0001E0
7803C0
7803C0
3C0780
3E0F80
3FFE00
1FFC00
07F000
ENDCHAR
STARTCHAR six
ENCODING 54
SWIDTH 826 0
DWIDTH 19 0
BBX 21 23 1 0
BITMAP
003F00
00FFC0
01FFE0
03F3E0
0781E0
0F81E0
0F0000
0F0000
1E7C00
1FFF00
1FFF80
1FCFC0
3E0780
3E07C0
3C03C0
3C03C0
780780
7C0F80
3C0F00
3F3F00
3FFC00
1FF800
07E000
ENDCHAR
STARTCHAR seven
ENCODING 55
SWIDTH 826 0
DWIDTH 19 0
BBX 22 23 0 0
BITMAP
07FFFC
07FFFC
07FFFC
00007C
0001F0
0003E0
0003C0
0007C0
000F00
001F00
001E00
003E00
007800
007800
00F800
00F000
01E000
03E000
03C000
03C000
078000
078000
078000
ENDCHAR
STARTCHAR eight
ENCODING 56
SWIDTH 826 0
DWIDTH 19 0
BBX 22 23 0 0
BITMAP
001F00
007FC0
00FFE0
01F1F0
03C1E0
0780F0
0780F0
0780F0
0783C0
07FFC0
03FF80
07FFC0
1F07C0
1E03C0
3C01E0
3C01E0
7803C0
7803C0
3C0780
3E0F80
3FFE00
1FFC00
07F000
ENDCHAR
STARTCHAR nine
ENCODING 57
SWIDTH 826 0
DWIDTH 19 0
BBX 21 23 0 0
BITMAP
003F00
00FFC0
01FFE0
03F3F0
0781E0
0F81F0
0F00F0
0F00F0
1E01E0
1F03E0
0F03E0
0FCFE0
0FFFC0
07FFC0
01F3C0
0003C0
000780
3C0F80
3C0F00
1F3F00
3FFC00
1FF800
07E000
ENDCHAR
STARTCHAR colon
ENCODING 58
SWIDTH 625 0
DWIDTH 10 0
BBX 8 16 2 0
BITMAP
0F
1E
1E
00
00
00
00
00
00
00
00
00
00
F0
F0
F0
ENDCHAR
STARTCHAR semicolon
ENCODING 59
SWIDTH 526 0
DWIDTH 10 0
BBX 8 19 2 -3
BITMAP
0F
0F
0F
00
00
00
00
00
00
00
00
00
00
78
78
78
30
60
C0
ENDCHAR
STARTCHAR less
ENCODING 60
SWIDTH 1250 0
DWIDTH 20 0
BBX 21 16 1 3
BITMAP
000038
0001F0
0007F0
001FC0
007F00
03F800
0FE000
3F8000
3F8000
1FC000
07F000
01FC00
007F00
003F80
000F80
000380
ENDCHAR
STARTCHAR equal
ENCODING 61
SWIDTH 2222 0
DWIDTH 20 0
BBX 20 9 1 7
BITMAP
3FFFF0
3FFFF0
7FFFE0
000000
000000
000000
FFFFC0
FFFFC0
FFFFC0
ENDCHAR
STARTCHAR greater
ENCODING 62
SWIDTH 1250 0
DWIDTH 20 0
BBX 21 16 2 3
BITMAP
0E0000
1F0000
1FC000
07F000
01FC00
00FE00
003F80
000FE0
000FE0
007F00
01FC00
07F000
1FC000
FE0000
F80000
E00000
ENDCHAR
STARTCHAR question
ENCODING 63
SWIDTH 783 0
DWIDTH 18 0
BBX 21 23 0 0
BITMAP
003F00
00FFC0
01FFE0
03E1F0
0781E0
0F00F0
0F00F0
0000F0
0001E0
0003C0
0007C0
000F80
003E00
007C00
007800
00F000
01E000
000000
000000
000000
03C000
03C000
03C000
ENDCHAR
STARTCHAR at
ENCODING 64
SWIDTH 1192 0
DWIDTH 31 0
BBX 35 26 0 -3
BITMAP
00007F8000
0003FFF000
000FC0FC00
003C003C00
0078001E00
00F0000F00
01E03E0700
0381FFC700
0703C7C700
0707038380
0707038380
1C1C070700
1C1C0E0700
1C380E0700
1C380E0E00
3870381C00
1C70783800
1C38FC7800
1C1FFFF000
1C1F9F8000
1E00000000
0F00000000
07C0000000
07E03C0000
01FFF80000
003FE00000
ENDCHAR
STARTCHAR A
ENCODING 65
SWIDTH 1000 0
DWIDTH 23 0
BBX 27 23 0 0
BITMAP
0007E000
0007E000
000FF000
000FF000
001FE000
003FF000
003CF000
003CF000
00F9F000
00F0F000
01F0F800
01E07800
03C0F000
07C0F800
07807800
07FFF800
1FFFF800
1FFFF800
3E007C00
3C003C00
78007800
F8007C00
F0003C00
ENDCHAR
STARTCHAR B
ENCODING 66
SWIDTH 957 0
DWIDTH 22 0
BBX 23 23 2 0
BITMAP
07FFC0
07FFF0
07FFF8
078078
0F0078
0F0078
0F0078
0F0078
1E01E0
1FFFE0
1FFFC0
1FFFE0
3C03E0
3C01E0
3C00F0
3C00F0
7801E0
7801E0
7803E0
7807C0
FFFF80
FFFF00
FFFC00
ENDCHAR
STARTCHAR C
ENCODING 67
SWIDTH 1043 0
DWIDTH 24 0
BBX 27 23 1 0
BITMAP
0007F000
003FFE00
007FFF00
00FC1F80
03E00F80
07C007C0
078003C0
078003C0
1E000000
1E000000
1E000000
1E000000
3C000000
3C000000
3C000000
1E000F00
3C001E00
3E003E00
1F007C00
0FC1F800
0FFFE000
07FFC000
00FE0000
ENDCHAR
STARTCHAR D
ENCODING 68
SWIDTH 1043 0
DWIDTH 24 0
BBX 25 23 2 0
BITMAP
07FF8000
07FFF000
07FFF800
0780FC00
0F007C00
0F003E00
0F001E00
0F001E00
1E001E00
1E001E00
1E001E00
1E001E00
3C003C00
3C003C00
3C003C00
3C007800
7800F000
7801F000
7803E000
780FC000
FFFF0000
FFFE0000
FFF00000
ENDCHAR
STARTCHAR E
ENCODING 69
SWIDTH 957 0
DWIDTH 22 0
BBX 23 23 2 0
BITMAP
07FFFE
07FFFE
07FFFE
078000
0F0000
0F0000
0F0000
0F0000
1E0000
1FFFE0
1FFFE0
1FFFE0
3C0000
3C0000
3C0000
3C0000
780000
780000
780000
780000
FFFFC0
FFFFC0
FFFFC0
ENDCHAR
STARTCHAR F
ENCODING 70
SWIDTH 913 0
DWIDTH 21 0
BBX 23 23 2 0
BITMAP
07FFFE
07FFFE
07FFFE
078000
0F0000
0F0000
0F0000
0F0000
1E0000
1FFFC0
1FFFC0
1FFFC0
3C0000
3C0000
3C0000
3C0000
780000
780000
780000
780000
F00000
F00000
F00000
ENDCHAR
STARTCHAR G
ENCODING 71
SWIDTH 1130 0
DWIDTH 26 0
BBX 27 23 1 0
BITMAP
0007F000
003FFE00
007FFF00
00FC1F80
03E00F80
07C007C0
078003C0
078003C0
1E000000
1E000000
1E000000
1E01FF80
3C03FF00
3C03FF00
3C000F00
1E000F00
3C003E00
3E003E00
1F007E00
0FC1FE00
0FFFFC00
07FFBC00
00FE3C00
ENDCHAR
STARTCHAR H
ENCODING 72
SWIDTH 1043 0
DWIDTH 24 0
BBX 24 23 2 0
BITMAP
07800F
07800F
07800F
07800F
0F001E
0F001E
0F001E
0F001E
1E003C
1FFFFC
1FFFFC
1FFFFC
3C0078
3C0078
3C0078
3C0078
7800F0
7800F0
7800F0
7800F0
F001E0
F001E0
F001E0
ENDCHAR
STARTCHAR I
ENCODING 73
SWIDTH 391 0
DWIDTH 9 0
BBX 9 23 2 0
BITMAP
0780
0780
0780
0780
0F00
0F00
0F00
0F00
1E00
1E00
1E00
1E00
3C00
3C00
3C00
3C00
7800
7800
7800
7800
F000
F000
F000
ENDCHAR
STARTCHAR J
ENCODING 74
SWIDTH 739 0
DWIDTH 17 0
BBX 19 23 0 0
BITMAP
0001E0
0001E0
0001E0
0001E0
0003C0
0003C0
0003C0
0003C0
000780
000780
000780
000780
000F00
000F00
3C0F00
3C0F00
781E00
781E00
7C3E00
3E7C00
7FF800
3FF000
0FC000
ENDCHAR
STARTCHAR K
ENCODING 75
SWIDTH 957 0
DWIDTH 22 0
BBX 25 23 1 0
BITMAP
07803E00
07807C00
0780F800
0781F000
0F07C000
0F0F8000
0F1F0000
0F3E0000
1EF80000
1FF00000
1FF00000
1FF80000
3FF80000
3E7C0000
3C3E0000
3C1F0000
781F0000
780F8000
7807C000
7803E000
F003E000
F001F000
F000F000
ENDCHAR
STARTCHAR L
ENCODING 76
SWIDTH 826 0
DWIDTH 19 0
BBX 21 23 2 0
BITMAP
078000
078000
078000
078000
0F0000
0F0000
0F0000
0F0000
1E0000
1E0000
1E0000
1E0000
3C0000
3C0000
3C0000
3C0000
780000
780000
780000
780000
FFFF00
FFFF00
FFFF00
ENDCHAR
STARTCHAR M
ENCODING 77
SWIDTH 1174 0
DWIDTH 27 0
BBX 27 23 2 0
BITMAP
07C003E0
07E007E0
07E007E0
07E007E0
0FE01FC0
0FE01FC0
0FE01FC0
0FF03FC0
1FE07F80
1FE07F80
1FF0FF80
1EF0F780
3DE1EF00
3DF3EF00
3CF3CF00
3CF3CF00
79FF9E00
78FF1E00
78FF1E00
78FF1E00
F0FC3C00
F0FC3C00
F0FC3C00
ENDCHAR
STARTCHAR N
ENCODING 78
SWIDTH 1087 0
DWIDTH 25 0
BBX 25 23 2 0
BITMAP
07C00780
07E00780
07E00780
07F00780
0FF00F00
0FF00F00
0FF80F00
0F7C0F00
1E781E00
1E7C1E00
1E3E1E00
1E1E1E00
3C3E3C00
3C1F3C00
3C0F3C00
3C0FBC00
780FF800
7807F800
7807F800
7803F800
F003F000
F003F000
F001F000
ENDCHAR
STARTCHAR O
ENCODING 79
SWIDTH 1130 0
DWIDTH 26 0
BBX 28 23 1 0
BITMAP
0007F000
003FFE00
007FFF00
00FC1F80
03E00F80
07C007C0
078003C0
078003C0
1E0003C0
1E0003C0
1E0003C0
1E0003C0
3C000780
3C000780
3C000780
1E000F00
3C001E00
3E003E00
1F007C00
0FC1F800
0FFFE000
07FFC000
00FE0000
ENDCHAR
STARTCHAR P
ENCODING 80
SWIDTH 957 0
DWIDTH 22 0
BBX 23 23 2 0
BITMAP
07FFE0
07FFF8
07FFFC
07807C
0F007C
0F003C
0F003C
0F003C
1E0078
1E00F8
1E01F0
1FFFF0
3FFFC0
3FFF00
3C0000
3C0000
780000
780000
780000
780000
F00000
F00000
F00000
ENDCHAR
STARTCHAR Q
ENCODING 81
SWIDTH 1130 0
DWIDTH 26 0
BBX 28 23 1 0
BITMAP
0007F000
003FFE00
007FFF00
00FC1F80
03E00F80
07C007C0
078003C0
078003C0
1E0003C0
1E0003C0
1E0003C0
1E0003C0
3C000780
3C000780
3C00E780
1E01FF00
3C01FE00
3E00FE00
1F007C00
0FC1FE00
0FFFFE00
07FFDE00
00FE0C00
ENDCHAR
STARTCHAR R
ENCODING 82
SWIDTH 1000 0
DWIDTH 23 0
BBX 24 23 2 0
BITMAP
07FFE0
07FFF8
07FFFC
07803C
0F003C
0F003C
0F003C
0F003C
1E00F8
1E01F0
1FFFF0
1FFFE0
3FFFE0
3C03E0
3C01F0
3C00F0
7801E0
7801E0
7801E0
7801E0
F003C0
F003E0
F001E0
ENDCHAR
STARTCHAR S
ENCODING 83
SWIDTH 957 0
DWIDTH 22 0
BBX 25 23 0 0
BITMAP
003FF000
00FFFC00
01FFFE00
01F03E00
07C03E00
07801E00
07800000
07C00000
07C00000
07FC0000
03FFE000
00FFF800
001FF800
0000F800
00007C00
00003C00
78007800
7C007800
3C00F800
3F01F000
3FFFE000
1FFFC000
07FF0000
ENDCHAR
STARTCHAR T
ENCODING 84
SWIDTH 913 0
DWIDTH 21 0
BBX 25 23 0 0
BITMAP
07FFFF80
07FFFF80
07FFFF80
00078000
000F0000
000F0000
000F0000
000F0000
001E0000
001E0000
001E0000
001E0000
003C0000
003C0000
003C0000
003C0000
00780000
00780000
00780000
00780000
00F00000
00F00000
00F00000
ENDCHAR
STARTCHAR U
ENCODING 85
SWIDTH 1043 0
DWIDTH 24 0
BBX 24 23 2 0
BITMAP
07800F
07800F
07800F
07800F
0F001E
0F001E
0F001E
0F001E
1E003C
1E003C
1E003C
1E003C
3C0078
3C0078
3C0078
3C0078
7800F0
7C01F0
3C01E0
3F07E0
3FFF80
1FFF00
07FC00
ENDCHAR
STARTCHAR V
ENCODING 86
SWIDTH 1000 0
DWIDTH 23 0
BBX 27 23 0 0
BITMAP
078001E0
07C003E0
03C003C0
03C003C0
07C00F80
03C00F00
03E01F00
01E01E00
03C03C00
03E07C00
01E07800
01E07800
03E1F000
01E1E000
01F3E000
00F3C000
01E78000
01FF8000
00FF0000
00FF0000
01FE0000
00FC0000
00FC0000
ENDCHAR
STARTCHAR W
ENCODING 87
SWIDTH 1391 0
DWIDTH 32 0
BBX 36 23 0 0
BITMAP
07803E00F0
07803E00F0
07803E00F0
07C07F01F0
0780FE03C0
0780FE03C0
07C1FF07C0
03C1EF0780
0783DE0F00
07C7DF1F00
03C78F1E00
03C78F1E00
07DF1F7C00
03DE0F7800
03DE0F7800
03FE0FF800
03F80FE000
03F80FE000
03F80FE000
01F007C000
03E00F8000
03E00F8000
03E00F8000
ENDCHAR
STARTCHAR X
ENCODING 88
SWIDTH 957 0
DWIDTH 22 0
BBX 26 23 0 0
BITMAP
03C00780
03E00F80
01E00F00
01F01F00
01F07C00
00F8F800
0078F000
007DF000
007FC000
003F8000
001F0000
001F0000
007F0000
00FF8000
00F78000
01F7C000
07C7C000
0F83E000
0F01E000
1F01F000
7C01F000
F800F800
F0007800
ENDCHAR
STARTCHAR Y
ENCODING 89
SWIDTH 1000 0
DWIDTH 23 0
BBX 27 23 0 0
BITMAP
078001E0
07C003E0
03E007C0
01F00F80
01E01E00
01F03E00
00F87C00
007CF800
0079E000
007FE000
003FC000
001F8000
001E0000
001E0000
001E0000
001E0000
003C0000
003C0000
003C0000
003C0000
00780000
00780000
00780000
ENDCHAR
STARTCHAR Z
ENCODING 90
SWIDTH 913 0
DWIDTH 21 0
BBX 25 23 0 0
BITMAP
03FFFF00
03FFFF00
03FFFF00
00001F00
00007C00
0000F800
0001F000
0003E000
000F8000
000F0000
001F0000
003E0000
00F80000
01F00000
01E00000
03E00000
0F800000
1F000000
3E000000
7C000000
FFFFF000
FFFFF000
FFFFF000
ENDCHAR
STARTCHAR bracketleft
ENCODING 91
SWIDTH 333 0
DWIDTH 10 0
BBX 14 30 0 -7
BITMAP
01FC
01FC
01FC
03C0
03C0
03C0
03C0
0780
0780
0780
0780
0F00
0F00
0F00
0F00
1E00
1E00
1E00
1E00
3C00
3C00
3C00
3C00
7800
7800
7800
7800
FE00
FE00
FE00
ENDCHAR
STARTCHAR backslash
ENCODING 92
SWIDTH 435 0
DWIDTH 10 0
BBX 15 23 -1 0
BITMAP
0780
0780
0780
03C0
0780
0780
0780
03C0
0780
0780
03C0
03C0
0780
0780
03C0
03C0
0780
03C0
03C0
03C0
03C0
03C0
03C0
ENDCHAR
STARTCHAR bracketright
ENCODING 93
SWIDTH 333 0
DWIDTH 10 0
BBX 14 30 -1 -7
BITMAP
01FC
01FC
01FC
0078
0078
0078
0078
00F0
00F0
00F0
00F0
01E0
01E0
01E0
01E0
03C0
03C0
03C0
03C0
0780
0780
0780
0780
0F00
0F00
0F00
0F00
FE00
FE00
FE00
ENDCHAR
STARTCHAR asciicircum
ENCODING 94
SWIDTH 3200 0
DWIDTH 16 0
BBX 15 5 4 18
BITMAP
07E0
0FF0
3FF0
7878
E01C
ENDCHAR
STARTCHAR underscore
ENCODING 95
SWIDTH 9500 0
DWIDTH 19 0
BBX 19 2 -1 -3
BITMAP
FFFFE0
FFFFE0
ENDCHAR
STARTCHAR grave
ENCODING 96
SWIDTH 3000 0
DWIDTH 12 0
BBX 9 4 5 19
BITMAP
7E00
3E00
0F00
0300
ENDCHAR
STARTCHAR a
ENCODING 97
SWIDTH 1188 0
DWIDTH 19 0
BBX 22 16 0 0
BITMAP
00FF80
07FFC0
0783C0
0F01E0
0001E0
0007C0
03FFC0
0FFFC0
1F03C0
3C0780
780780
780780
780F80
783F80
7FFFC0
1FE3C0
ENDCHAR
STARTCHAR b
ENCODING 98
SWIDTH 826 0
DWIDTH 19 0
BBX 21 23 1 0
BITMAP
078000
078000
078000
078000
0F0000
0F0000
0F0000
0F7F00
1FFF80
1FCFC0
1F03C0
1F03E0
3C03C0
3C03C0
3C03C0
3C03C0
780780
780780
7C0F80
7C0F00
FE7E00
FFFC00
F7F000
ENDCHAR
STARTCHAR c
ENCODING 99
SWIDTH 1063 0
DWIDTH 17 0
BBX 20 16 0 0
BITMAP
00FF80
07FFC0
0FC7E0
0F01E0
1F01E0
3C0000
3C0000
3C0000
3C0000
780000
780000
7C0780
3C0780
7E3F00
3FFE00
0FF800
ENDCHAR
STARTCHAR d
ENCODING 100
SWIDTH 826 0
DWIDTH 19 0
BBX 21 23 0 0
BITMAP
000078
000078
000078
000078
0000F0
0000F0
0000F0
00FEF0
07FFE0
0FCFE0
0F03E0
1F03E0
3C03C0
3C03C0
3C03C0
3C03C0
780780
780780
7C0F80
3C0F80
7E7F00
3FFF00
0FEF00
ENDCHAR
STARTCHAR e
ENCODING 101
SWIDTH 1125 0
DWIDTH 18 0
BBX 20 16 0 0
BITMAP
00FF00
07FF80
0FCFC0
0F03C0
1F03E0
3C03C0
3FFFC0
3FFFC0
3C0000
780000
780000
7C0F80
3C0F00
7E7E00
3FFC00
0FF000
ENDCHAR
STARTCHAR f
ENCODING 102
SWIDTH 435 0
DWIDTH 10 0
BBX 15 23 -1 0
BITMAP
001E
007E
0078
00F0
01E0
01E0
01E0
0FFC
1FF8
03C0
03C0
03C0
0780
0780
0780
0780
0F00
0F00
0F00
0F00
1E00
1E00
1E00
ENDCHAR
STARTCHAR g
ENCODING 103
SWIDTH 826 0
DWIDTH 19 0
BBX 21 23 -1 -7
BITMAP
007F78
01FFF8
03F3F8
03C0F8
0F81F0
0F00F0
0F00F0
0F00F0
1E01E0
1E01E0
1E01E0
1F03E0
1E07C0
1F9FC0
0FFFC0
03FBC0
000780
000780
3C0F00
3C0F00
3E7C00
1FF800
07E000
ENDCHAR
STARTCHAR h
ENCODING 104
SWIDTH 826 0
DWIDTH 19 0
BBX 20 23 1 0
BITMAP
078000
078000
078000
078000
0F0000
0F0000
0F0000
0F7F00
1FFF80
1F8F80
1F07C0
1E03C0
3C0780
3C0780
3C0780
3C0780
780F00
780F00
780F00
780F00
F01E00
F01E00
F01E00
ENDCHAR
STARTCHAR i
ENCODING 105
SWIDTH 348 0
DWIDTH 8 0
BBX 9 23 1 0
BITMAP
0780
0780
0780
0000
0000
0000
0000
0F00
1E00
1E00
1E00
1E00
3C00
3C00
3C00
3C00
7800
7800
7800
7800
F000
F000
F000
ENDCHAR
STARTCHAR j
ENCODING 106
SWIDTH 267 0
DWIDTH 8 0
BBX 13 30 -2 -7
BITMAP
0078
0078
0078
0000
0000
0000
0000
01E0
01E0
01E0
01E0
03C0
03C0
03C0
03C0
0780
0780
0780
0780
0F00
0F00
0F00
0F00
1E00
1E00
1E00
1E00
7C00
F800
F000
ENDCHAR
STARTCHAR k
ENCODING 107
SWIDTH 739 0
DWIDTH 17 0
BBX 20 23 1 0
BITMAP
078000
078000
078000
078000
0F0000
0F0000
0F0000
0F0780
1E1E00
1E3C00
1E7800
1EF000
3FC000
3FC000
3FE000
3FF000
79F000
78F000
78F800
787C00
F07C00
F03C00
F03E00
ENDCHAR
STARTCHAR l
ENCODING 108
SWIDTH 348 0
DWIDTH 8 0
BBX 9 23 1 0
BITMAP
0780
0780
0780
0780
0F00
0F00
0F00
0F00
1E00
1E00
1E00
1E00
3C00
3C00
3C00
3C00
7800
7800
7800
7800
F000
F000
F000
ENDCHAR
STARTCHAR m
ENCODING 109
SWIDTH 1750 0
DWIDTH 28 0
BBX 28 16 1 0
BITMAP
0F7E1F80
1FFF7FC0
1F9FE7C0
1F0FC3E0
1E0781E0
3C0F03C0
3C0F03C0
3C0F03C0
3C0F03C0
781E0780
781E0780
781E0780
781E0780
F03C0F00
F03C0F00
F03C0F00
ENDCHAR
STARTCHAR n
ENCODING 110
SWIDTH 1188 0
DWIDTH 19 0
BBX 19 16 1 0
BITMAP
0F7F00
1FFF80
1F8F80
1F07C0
1E03C0
3C0780
3C0780
3C0780
3C0780
780F00
780F00
780F00
780F00
F01E00
F01E00
F01E00
ENDCHAR
STARTCHAR o
ENCODING 111
SWIDTH 1188 0
DWIDTH 19 0
BBX 21 16 0 0
BITMAP
00FF80
07FFC0
0FC7E0
0F01E0
1F01F0
3C01E0
3C01E0
3C01E0
3C01E0
7803C0
7803C0
7C07C0
3C0780
7E3F00
3FFE00
0FF800
ENDCHAR
STARTCHAR p
ENCODING 112
SWIDTH 864 0
DWIDTH 19 0
BBX 21 22 0 -6
BITMAP
07BF80
07FFE0
07F3F0
0F81E0
0F81F0
0F00F0
0F00F0
1E01E0
1E01E0
1E01E0
1E01E0
3E07C0
3E0780
3F9F80
3FFF00
7BF800
780000
780000
780000
F00000
F00000
F00000
ENDCHAR
STARTCHAR q
ENCODING 113
SWIDTH 864 0
DWIDTH 19 0
BBX 21 22 -1 -6
BITMAP
007F78
01FFF8
03F3F8
0781F0
0F81F0
0F00F0
0F00F0
1E01E0
1E01E0
1E01E0
1E01E0
3E07C0
1E07C0
1F9FC0
0FFFC0
07F780
000780
000780
000780
000F00
000F00
000F00
ENDCHAR
STARTCHAR r
ENCODING 114
SWIDTH 750 0
DWIDTH 12 0
BBX 14 16 1 0
BITMAP
0F7C
1FF8
1F80
1F00
1E00
3C00
3C00
3C00
3C00
7800
7800
7800
7800
F000
F000
F000
ENDCHAR
STARTCHAR s
ENCODING 115
SWIDTH 1063 0
DWIDTH 17 0
BBX 19 16 0 0
BITMAP
01FE00
0FFF00
0F0F00
1E0780
1E0000
3C0000
1E0000
1FFC00
07FF00
001E00
000F00
780F00
780F00
783C00
7FFC00
1FF000
ENDCHAR
STARTCHAR t
ENCODING 116
SWIDTH 455 0
DWIDTH 10 0
BBX 15 22 -1 0
BITMAP
00F0
00F0
00F0
01E0
01E0
01E0
0FFC
1FF8
03C0
03C0
03C0
0780
0780
0780
0780
0F00
0F00
0F00
0F00
0F00
0FC0
03C0
ENDCHAR
STARTCHAR u
ENCODING 117
SWIDTH 1188 0
DWIDTH 19 0
BBX 19 16 1 0
BITMAP
0F01E0
1E03C0
1E03C0
1E03C0
1E03C0
3C0780
3C0780
3C0780
3C0780
780F00
780F00
780F00
7C1F00
7C7E00
7FFE00
1FDE00
ENDCHAR
STARTCHAR v
ENCODING 118
SWIDTH 1000 0
DWIDTH 16 0
BBX 20 16 -1 0
BITMAP
0F00F0
1E01E0
1E01E0
0F03C0
0F03C0
0F0F00
0F0F00
079E00
079E00
07F800
07F800
07F800
03F000
07E000
03C000
03C000
ENDCHAR
STARTCHAR w
ENCODING 119
SWIDTH 1500 0
DWIDTH 24 0
BBX 28 16 -1 0
BITMAP
0F03C0F0
1E0781E0
1E0781E0
0F0FC3C0
0F0FC3C0
0F3FCF00
0F3FCF00
0F3FCF00
07F9FE00
0FF3FC00
0FF3FC00
07E1F800
07E1F800
0781E000
0781E000
0781E000
ENDCHAR
STARTCHAR x
ENCODING 120
SWIDTH 1000 0
DWIDTH 16 0
BBX 20 16 -1 0
BITMAP
0F00F0
1F03E0
0F87C0
07CF80
03CF00
07FE00
03FC00
01F800
01F800
07F800
0FFC00
0F3C00
1F3E00
7C3E00
F81F00
F00F00
ENDCHAR
STARTCHAR y
ENCODING 121
SWIDTH 696 0
DWIDTH 16 0
BBX 21 23 -2 -7
BITMAP
078078
078078
078078
03C0F0
0781E0
03C3C0
03C3C0
01E780
03CF00
01FE00
01FE00
00FC00
01F800
00F000
00F000
01E000
03C000
078000
078000
0F0000
3E0000
FC0000
F00000
ENDCHAR
STARTCHAR z
ENCODING 122
SWIDTH 1063 0
DWIDTH 17 0
BBX 19 16 0 0
BITMAP
0FFFC0
1FFF80
1FFF80
000F80
001F00
007C00
00F800
01F000
01E000
07C000
0F8000
1F0000
3E0000
FFFE00
FFFE00
FFFE00
ENDCHAR
STARTCHAR braceleft
ENCODING 123
SWIDTH 480 0
DWIDTH 12 0
BBX 17 25 0 -1
BITMAP
000F80
003F80
007C00
00F800
00F000
00F000
01E000
01E000
01E000
01C000
078000
0F0000
1E0000
0F0000
0F0000
070000
078000
078000
0F0000
0F0000
0F0000
0F8000
0F8000
0FE000
03E000
ENDCHAR
STARTCHAR bar
ENCODING 124
SWIDTH 348 0
DWIDTH 8 0
BBX 9 23 1 0
BITMAP
0780
0780
0780
0780
0F00
0F00
0F00
0F00
1E00
1E00
1E00
1E00
3C00
3C00
3C00
3C00
7800
7800
7800
7800
F000
F000
F000
ENDCHAR
STARTCHAR braceright
ENCODING 125
SWIDTH 480 0
DWIDTH 12 0
BBX 17 25 0 -1
BITMAP
03E000
03F800
01F000
00F800
007800
007800
00F000
00F000
00F000
00F000
00F000
00F800
007C00
007800
01E000
01C000
03C000
03C000
078000
078000
078000
0F8000
3E0000
FE0000
F80000
ENDCHAR
STARTCHAR asciitilde
ENCODING 126
SWIDTH 4000 0
DWIDTH 20 0
BBX 18 5 5 18
BITMAP
1F83C0
3FC3C0
FBEF80
F0FF00
F07E00
ENDCHAR
STARTCHAR bullet
ENCODING 149
SWIDTH 1444 0
DWIDTH 13 0
BBX 13 9 1 3
BITMAP
0FE0
1FF0
7FF0
7FF0
7FF0
7FF0
FFE0
7FC0
3F80
ENDCHAR
STARTCHAR space
ENCODING 154
SWIDTH 313 0
DWIDTH 10 0
BBX 0 0 -1 0
BITMAP
ENDCHAR
STARTCHAR degree
ENCODING 156
SWIDTH 1333 0
DWIDTH 12 0
BBX 12 9 3 14
BITMAP
0780
1FE0
39C0
70E0
70E0
70E0
7380
7F80
1E00
ENDCHAR
STARTCHAR twosuperior
ENCODING 157
SWIDTH 909 0
DWIDTH 10 0
BBX 11 11 3 12
BITMAP
0F80
1FC0
38E0
00E0
0780
1F00
3C00
3800
E000
FF80
FF80
ENDCHAR
STARTCHAR periodcentered
ENCODING 158
SWIDTH 3333 0
DWIDTH 10 0
BBX 4 3 3 7
BITMAP
F0
F0
F0
ENDCHAR
STARTCHAR afii10071
ENCODING 163
SWIDTH 900 0
DWIDTH 18 0
BBX 21 20 0 0
BITMAP
00F1E0
01E3C0
01E3C0
000000
00FF00
07FF80
0FCFC0
0F03C0
1F03E0
3C03C0
3FFFC0
3FFFC0
3C0000
780000
780000
7C0F80
3C0F00
7E7E00
3FFC00
0FF000
ENDCHAR
STARTCHAR afii10023
ENCODING 179
SWIDTH 846 0
DWIDTH 22 0
BBX 24 26 2 0
BITMAP
007878
007878
000000
07FFFE
07FFFE
07FFFE
078000
0F0000
0F0000
0F0000
0F0000
1E0000
1FFFE0
1FFFE0
1FFFE0
3C0000
3C0000
3C0000
3C0000
780000
780000
780000
780000
FFFFC0
FFFFC0
FFFFC0
ENDCHAR
STARTCHAR copyright
ENCODING 191
SWIDTH 1087 0
DWIDTH 25 0
BBX 28 23 0 0
BITMAP
0003E000
001FFC00
007C1F00
00F00780
03C00780
03800380
0707E1C0
070FF1C0
0C3CE180
1C3801C0
1C3801C0
1C3801C0
38700380
38700380
1879C300
1C3FC700
383F0E00
1C001C00
1E003C00
0F007800
0F83E000
03FF8000
007C0000
ENDCHAR
STARTCHAR afii10096
ENCODING 192
SWIDTH 1500 0
DWIDTH 24 0
BBX 24 16 1 0
BITMAP
0F0FF0
1E7FF8
1EFCFC
1EF03C
1FF03E
3FC03C
3FC03C
3FC03C
3FC03C
7F8078
7F8078
7FC0F8
7BC0F0
F7E7E0
F3FFC0
F0FF00
ENDCHAR
STARTCHAR afii10065
ENCODING 193
SWIDTH 1188 0
DWIDTH 19 0
BBX 22 16 0 0
BITMAP
00FF80
07FFC0
0783C0
0F01E0
0001E0
0007C0
03FFC0
0FFFC0
1F03C0
3C0780
780780
780780
780F80
783F80
7FFFC0
1FE3C0
ENDCHAR
STARTCHAR afii10066
ENCODING 194
SWIDTH 826 0
DWIDTH 19 0
BBX 22 23 0 0
BITMAP
000038
0001F8
001FF0
00FFC0
03F000
07E000
078000
0F7F00
1FFF80
1FC7C0
1F83E0
1F01E0
3C01E0
3C01E0
3C01E0
3C01E0
7803C0
7803C0
3C0780
3E0F80
3E3E00
1FFC00
07F000
ENDCHAR
STARTCHAR afii10088
ENCODING 195
SWIDTH 1053 0
DWIDTH 20 0
BBX 21 19 1 -3
BITMAP
0F01E0
0F01E0
0F01E0
0F01E0
1E03C0
1E03C0
1E03C0
1E03C0
3C0780
3C0780
3C0780
3C0780
780F00
780F00
7FFFC0
7FFFC0
000780
000780
000780
ENDCHAR
STARTCHAR afii10069
ENCODING 196
SWIDTH 1211 0
DWIDTH 23 0
BBX 25 19 0 -3
BITMAP
00FFFC00
00FFFC00
00F03C00
00F03C00
01E07800
01E07800
01E07800
01E07800
03C0F000
03C0F000
03C0F000
03C0F000
0781E000
0F01E000
7FFFFC00
7FFFFC00
F0007800
F0007800
F0007800
ENDCHAR
STARTCHAR afii10070
ENCODING 197
SWIDTH 1125 0
DWIDTH 18 0
BBX 20 16 0 0
BITMAP
00FF00
07FF80
0FCFC0
0F03C0
1F03E0
3C03C0
3FFFC0
3FFFC0
3C0000
780000
780000
7C0F80
3C0F00
7E7E00
3FFC00
0FF000
ENDCHAR
STARTCHAR afii10086
ENCODING 198
SWIDTH 815 0
DWIDTH 22 0
BBX 26 27 -1 -6
BITMAP
0003C000
0003C000
0003C000
0003C000
00078000
007FF800
01FFFE00
03F7BF00
078F1E00
0F8F1F00
0F0F0F00
0F0F0F00
1E1E1E00
1E1E1E00
1E1E1E00
1E1E1E00
3E3C7C00
1E3C7800
1FBDF800
0FFFF000
07FF8000
00780000
00780000
00780000
00F00000
00F00000
00F00000
ENDCHAR
STARTCHAR afii10068
ENCODING 199
SWIDTH 1063 0
DWIDTH 17 0
BBX 18 16 1 0
BITMAP
0FFFC0
1FFF80
1E0000
1E0000
1E0000
3C0000
3C0000
3C0000
3C0000
780000
780000
780000
780000
F00000
F00000
F00000
ENDCHAR
STARTCHAR afii10087
ENCODING 200
SWIDTH 1000 0
DWIDTH 16 0
BBX 20 16 -1 0
BITMAP
0F00F0
1F03E0
0F87C0
07CF80
03CF00
07FE00
03FC00
01F800
01F800
07F800
0FFC00
0F3C00
1F3E00
7C3E00
F81F00
F00F00
ENDCHAR
STARTCHAR afii10074
ENCODING 201
SWIDTH 1188 0
DWIDTH 19 0
BBX 19 16 1 0
BITMAP
0F01E0
1E03C0
1E03C0
1E07C0
1E0FC0
3C3F80
3C7F80
3CFF80
3DF780
7FCF00
7F8F00
7F0F00
7E0F00
F81E00
F01E00
F01E00
ENDCHAR
STARTCHAR afii10075
ENCODING 202
SWIDTH 950 0
DWIDTH 19 0
BBX 20 20 1 0
BITMAP
00F780
01EF00
00FE00
007C00
0F01E0
1E03C0
1E03C0
1E07C0
1E0FC0
3C3F80
3C7F80
3CFF80
3DF780
7FCF00
7F8F00
7F0F00
7E0F00
F81E00
F01E00
F01E00
ENDCHAR
STARTCHAR afii10076
ENCODING 203
SWIDTH 1063 0
DWIDTH 17 0
BBX 19 16 1 0
BITMAP
0F0780
1E1E00
1E3C00
1E7800
1EF000
3FC000
3FC000
3FE000
3FF000
79F000
78F000
78F800
787C00
F07C00
F03C00
F03E00
ENDCHAR
STARTCHAR afii10077
ENCODING 204
SWIDTH 1188 0
DWIDTH 19 0
BBX 20 16 0 0
BITMAP
00FFF0
03FFE0
03C1E0
03C1E0
03C1E0
0783C0
0783C0
0783C0
0783C0
0F0780
0F0780
0F0780
0F0780
1E0F00
FE0F00
FC0F00
ENDCHAR
STARTCHAR afii10078
ENCODING 205
SWIDTH 1563 0
DWIDTH 25 0
BBX 25 16 1 0
BITMAP
0F000780
1F001F00
1F803F00
1FC07F00
1FE0FF00
3FE3FE00
3DF7DE00
3CFF9E00
3C7F1E00
787C3C00
78383C00
78003C00
78003C00
F0007800
F0007800
F0007800
ENDCHAR
STARTCHAR afii10079
ENCODING 206
SWIDTH 1188 0
DWIDTH 19 0
BBX 19 16 1 0
BITMAP
0F01E0
1E03C0
1E03C0
1E03C0
1E03C0
3C0780
3C0780
3FFF80
3FFF80
780F00
780F00
780F00
780F00
F01E00
F01E00
F01E00
ENDCHAR
STARTCHAR afii10080
ENCODING 207
SWIDTH 1188 0
DWIDTH 19 0
BBX 21 16 0 0
BITMAP
00FF80
07FFC0
0FC7E0
0F01E0
1F01F0
3C01E0
3C01E0
3C01E0
3C01E0
7803C0
7803C0
7C07C0
3C0780
7E3F00
3FFE00
0FF800
ENDCHAR
STARTCHAR afii10081
ENCODING 208
SWIDTH 1188 0
DWIDTH 19 0
BBX 19 16 1 0
BITMAP
0FFFE0
1FFFC0
1E03C0
1E03C0
1E03C0
3C0780
3C0780
3C0780
3C0780
780F00
780F00
780F00
780F00
F01E00
F01E00
F01E00
ENDCHAR
STARTCHAR afii10097
ENCODING 209
SWIDTH 1125 0
DWIDTH 18 0
BBX 19 16 0 0
BITMAP
03FFE0
0FFFC0
1F03C0
1E03C0
1E03C0
3C0780
3E0780
1FFF80
0FFF80
03EF00
07CF00
0F8F00
1F0F00
7C1E00
F81E00
F01E00
ENDCHAR
STARTCHAR afii10082
ENCODING 210
SWIDTH 864 0
DWIDTH 19 0
BBX 21 22 0 -6
BITMAP
07BF80
07FFE0
07F3F0
0F81E0
0F81F0
0F00F0
0F00F0
1E01E0
1E01E0
1E01E0
1E01E0
3E07C0
3E0780
3F9F80
3FFF00
7BF800
780000
780000
780000
F00000
F00000
F00000
ENDCHAR
STARTCHAR afii10083
ENCODING 211
SWIDTH 1063 0
DWIDTH 17 0
BBX 20 16 0 0
BITMAP
00FF80
07FFC0
0FC7E0
0F01E0
1F01E0
3C0000
3C0000
3C0000
3C0000
780000
780000
7C0780
3C0780
7E3F00
3FFE00
0FF800
ENDCHAR
STARTCHAR afii10084
ENCODING 212
SWIDTH 1188 0
DWIDTH 19 0
BBX 21 16 0 0
BITMAP
0FFFF8
1FFFF0
003C00
003C00
003C00
007800
007800
007800
007800
00F000
00F000
00F000
00F000
01E000
01E000
01E000
ENDCHAR
STARTCHAR afii10085
ENCODING 213
SWIDTH 696 0
DWIDTH 16 0
BBX 21 23 -2 -7
BITMAP
078078
078078
078078
03C0F0
0781E0
03C3C0
03C3C0
01E780
03CF00
01FE00
01FE00
00FC00
01F800
00F000
00F000
01E000
03C000
078000
078000
0F0000
3E0000
FC0000
F00000
ENDCHAR
STARTCHAR afii10072
ENCODING 214
SWIDTH 1625 0
DWIDTH 26 0
BBX 30 16 -1 0
BITMAP
03C1E0F0
07C3C3E0
03E3C7C0
01F3CF80
00FBDF00
00FFFC00
007FF800
007FF800
00FFFC00
03EF7C00
07CF3E00
0F8F1F00
1F0F0F80
7C1E0F80
F81E07C0
F01E03C0
ENDCHAR
STARTCHAR afii10067
ENCODING 215
SWIDTH 1188 0
DWIDTH 19 0
BBX 19 16 1 0
BITMAP
0FFF00
1FFF00
1E0F80
1E0780
1E0780
3C0F00
3FFE00
3FFE00
3C0F00
780F00
780F00
780F00
780F00
F03C00
FFFC00
FFF800
ENDCHAR
STARTCHAR afii10094
ENCODING 216
SWIDTH 1188 0
DWIDTH 19 0
BBX 20 16 1 0
BITMAP
0F0000
1E0000
1E0000
1E0000
1E0000
3C0000
3C0000
3FFF00
3FFF80
780F80
780780
780780
780780
F01F00
FFFE00
FFFC00
ENDCHAR
STARTCHAR afii10093
ENCODING 217
SWIDTH 1500 0
DWIDTH 24 0
BBX 24 16 1 0
BITMAP
0F000F
1E001E
1E001E
1E001E
1E001E
3C003C
3C003C
3FFF3C
3FFFBC
780FF8
7807F8
7807F8
7807F8
F01FF0
FFFEF0
FFFCF0
ENDCHAR
STARTCHAR afii10073
ENCODING 218
SWIDTH 1063 0
DWIDTH 17 0
BBX 19 16 0 0
BITMAP
01FF00
07FF00
0F8F00
0F0780
000780
000F00
00FE00
00FE00
001F00
000F00
000F00
780F00
780F00
783C00
7FFC00
3FF000
ENDCHAR
STARTCHAR afii10090
ENCODING 219
SWIDTH 1625 0
DWIDTH 26 0
BBX 26 16 1 0
BITMAP
0F0783C0
1E0F0780
1E0F0780
1E0F0780
1E0F0780
3C1E0F00
3C1E0F00
3C1E0F00
3C1E0F00
783C1E00
783C1E00
783C1E00
783C1E00
F0783C00
FFFFFC00
FFFFFC00
ENDCHAR
STARTCHAR afii10095
ENCODING 220
SWIDTH 1125 0
DWIDTH 18 0
BBX 20 16 0 0
BITMAP
01FF00
0FFF80
1F8FC0
1E03C0
0003E0
0003C0
0003C0
00FFC0
00FFC0
000780
000780
000F80
780F00
FC7E00
7FFC00
1FF000
ENDCHAR
STARTCHAR afii10091
ENCODING 221
SWIDTH 1421 0
DWIDTH 27 0
BBX 28 19 1 -3
BITMAP
0F0783C0
0F0783C0
0F0783C0
0F0783C0
1E0F0780
1E0F0780
1E0F0780
1E0F0780
3C1E0F00
3C1E0F00
3C1E0F00
3C1E0F00
783C1E00
783C1E00
7FFFFF80
7FFFFF80
00000F00
00000F00
00000F00
ENDCHAR
STARTCHAR afii10089
ENCODING 222
SWIDTH 1188 0
DWIDTH 19 0
BBX 19 16 1 0
BITMAP
0F01E0
1E03C0
1E03C0
1E03C0
1E03C0
3C0780
3C0780
3FFF80
1FFF80
000F00
000F00
000F00
000F00
001E00
001E00
001E00
ENDCHAR
STARTCHAR afii10092
ENCODING 223
SWIDTH 1313 0
DWIDTH 21 0
BBX 23 16 0 0
BITMAP
0FE000
1FC000
03C000
03C000
03C000
078000
078000
07FFE0
07FFF0
0F01F0
0F00F0
0F00F0
0F00F0
1E03E0
1FFFC0
1FFF80
ENDCHAR
STARTCHAR afii10048
ENCODING 224
SWIDTH 1304 0
DWIDTH 30 0
BBX 31 23 1 0
BITMAP
07807E00
0783FFC0
0787FFE0
078FC3F0
0F3E01F0
0F7C00F8
0F780078
0F780078
1FE00078
1FE00078
1FE00078
1FE00078
3FC000F0
3FC000F0
3FC000F0
3DE001E0
7BC003C0
7BE007C0
79F00F80
78FC3F00
F0FFFC00
F07FF800
F00FC000
ENDCHAR
STARTCHAR afii10017
ENCODING 225
SWIDTH 1000 0
DWIDTH 23 0
BBX 27 23 0 0
BITMAP
0007E000
0007E000
000FF000
000FF000
001FE000
003FF000
003CF000
003CF000
00F9F000
00F0F000
01F0F800
01E07800
03C0F000
07C0F800
07807800
07FFF800
1FFFF800
1FFFF800
3E007C00
3C003C00
78007800
F8007C00
F0003C00
ENDCHAR
STARTCHAR afii10018
ENCODING 226
SWIDTH 957 0
DWIDTH 22 0
BBX 23 23 2 0
BITMAP
07FFFC
07FFFC
07FFFC
078000
0F0000
0F0000
0F0000
0F0000
1E0000
1FFF80
1FFFC0
1FFFE0
3C03E0
3C01E0
3C00F0
3C00F0
7801E0
7801E0
7803E0
7807C0
FFFF80
FFFF00
FFFC00
ENDCHAR
STARTCHAR afii10040
ENCODING 227
SWIDTH 962 0
DWIDTH 25 0
BBX 27 26 2 -3
BITMAP
03C00780
03C00780
03C00780
07800F00
07800F00
07800F00
07800F00
0F001E00
0F001E00
0F001E00
0F001E00
1E003C00
1E003C00
1E003C00
1E003C00
3C007800
3C007800
3C007800
3C007800
7800F000
7FFFFC00
7FFFFC00
7FFFFC00
00007800
00007800
00007800
ENDCHAR
STARTCHAR afii10021
ENCODING 228
SWIDTH 923 0
DWIDTH 24 0
BBX 28 26 0 -3
BITMAP
001FFF80
001FFF80
001FFF80
003C0F00
003C0F00
003C0F00
003C0F00
00781E00
00781E00
00781E00
00781E00
00F03C00
00F03C00
00F03C00
00F03C00
01E07800
01E07800
01E07800
03E07800
0F80F000
7FFFFE00
7FFFFE00
7FFFFE00
F0003C00
F0003C00
F0003C00
ENDCHAR
STARTCHAR afii10022
ENCODING 229
SWIDTH 957 0
DWIDTH 22 0
BBX 23 23 2 0
BITMAP
07FFFE
07FFFE
07FFFE
078000
0F0000
0F0000
0F0000
0F0000
1E0000
1FFFE0
1FFFE0
1FFFE0
3C0000
3C0000
3C0000
3C0000
780000
780000
780000
780000
FFFFC0
FFFFC0
FFFFC0
ENDCHAR
STARTCHAR afii10038
ENCODING 230
SWIDTH 1167 0
DWIDTH 28 0
BBX 30 24 1 0
BITMAP
0000F000
0007F800
003FFF00
007FFF80
00FDEFC0
03E3C7C0
07C3C3E0
0783C1E0
0783C1E0
1E0781E0
1E0781E0
1E0781E0
1E0781E0
3C0F03C0
1E0F0780
1E0F0780
1F0F0F80
1F1E3E00
0FDEFC00
07FFF800
03FFF000
00FF0000
003C0000
003C0000
ENDCHAR
STARTCHAR afii10020
ENCODING 231
SWIDTH 957 0
DWIDTH 22 0
BBX 23 23 2 0
BITMAP
07FFFE
07FFFE
07FFFE
078000
0F0000
0F0000
0F0000
0F0000
1E0000
1E0000
1E0000
1E0000
3C0000
3C0000
3C0000
3C0000
780000
780000
780000
780000
F00000
F00000
F00000
ENDCHAR
STARTCHAR afii10039
ENCODING 232
SWIDTH 957 0
DWIDTH 22 0
BBX 26 23 0 0
BITMAP
03C00780
03E00F80
01E00F00
01F01F00
01F07C00
00F8F800
0078F000
007DF000
007FC000
003F8000
001F0000
001F0000
007F0000
00FF8000
00F78000
01F7C000
07C7C000
0F83E000
0F01E000
1F01F000
7C01F000
F800F800
F0007800
ENDCHAR
STARTCHAR afii10026
ENCODING 233
SWIDTH 1087 0
DWIDTH 25 0
BBX 25 23 2 0
BITMAP
07800780
07800780
07800780
07800780
0F001F00
0F003F00
0F007F00
0F00FF00
1E03FE00
1E07DE00
1E0F9E00
1E1F1E00
3C7C3C00
3CF83C00
3DF03C00
3FE03C00
7F807800
7F007800
7E007800
7C007800
F000F000
F000F000
F000F000
ENDCHAR
STARTCHAR afii10027
ENCODING 234
SWIDTH 962 0
DWIDTH 25 0
BBX 26 26 2 0
BITMAP
003E7C00
001FF800
000FF000
07878780
07800780
07800780
07800780
0F001F00
0F003F00
0F007F00
0F00FF00
1E03FE00
1E07DE00
1E0F9E00
1E1F1E00
3C7C3C00
3CF83C00
3DF03C00
3FE03C00
7F807800
7F007800
7E007800
7C007800
F000F000
F000F000
F000F000
ENDCHAR
STARTCHAR afii10028
ENCODING 235
SWIDTH 957 0
DWIDTH 22 0
BBX 25 23 1 0
BITMAP
07803E00
07807C00
0780F800
0781F000
0F07C000
0F0F8000
0F1F0000
0F3E0000
1EF80000
1FF00000
1FF00000
1FF80000
3FF80000
3E7C0000
3C3E0000
3C1F0000
781F0000
780F8000
7807C000
7803E000
F003E000
F001F000
F000F000
ENDCHAR
STARTCHAR afii10029
ENCODING 236
SWIDTH 957 0
DWIDTH 22 0
BBX 23 23 1 0
BITMAP
007FFE
00FFFE
00FFFE
00F01E
01E03C
01E03C
01E03C
01E03C
03C078
03C078
03C078
03C078
0780F0
0780F0
0780F0
0780F0
0F01E0
0F01E0
0F01E0
0F01E0
1E03C0
FE03C0
FC03C0
ENDCHAR
STARTCHAR afii10030
ENCODING 237
SWIDTH 1174 0
DWIDTH 27 0
BBX 27 23 2 0
BITMAP
07C003E0
07E007E0
07E007E0
07E007E0
0FE01FC0
0FE01FC0
0FE01FC0
0FF03FC0
1FE07F80
1FE07F80
1FF0FF80
1EF0F780
3DE1EF00
3DF3EF00
3CF3CF00
3CF3CF00
79FF9E00
78FF1E00
78FF1E00
78FF1E00
F0FC3C00
F0FC3C00
F0FC3C00
ENDCHAR
STARTCHAR afii10031
ENCODING 238
SWIDTH 1043 0
DWIDTH 24 0
BBX 24 23 2 0
BITMAP
07800F
07800F
07800F
07800F
0F001E
0F001E
0F001E
0F001E
1E003C
1FFFFC
1FFFFC
1FFFFC
3C0078
3C0078
3C0078
3C0078
7800F0
7800F0
7800F0
7800F0
F001E0
F001E0
F001E0
ENDCHAR
STARTCHAR afii10032
ENCODING 239
SWIDTH 1130 0
DWIDTH 26 0
BBX 28 23 1 0
BITMAP
0007F000
003FFE00
007FFF00
00FC1F80
03E00F80
07C007C0
078003C0
078003C0
1E0003C0
1E0003C0
1E0003C0
1E0003C0
3C000780
3C000780
3C000780
1E000F00
3C001E00
3E003E00
1F007C00
0FC1F800
0FFFE000
07FFC000
00FE0000
ENDCHAR
STARTCHAR afii10033
ENCODING 240
SWIDTH 1043 0
DWIDTH 24 0
BBX 24 23 2 0
BITMAP
07FFFF
07FFFF
07FFFF
07800F
0F001E
0F001E
0F001E
0F001E
1E003C
1E003C
1E003C
1E003C
3C0078
3C0078
3C0078
3C0078
7800F0
7800F0
7800F0
7800F0
F001E0
F001E0
F001E0
ENDCHAR
STARTCHAR afii10049
ENCODING 241
SWIDTH 957 0
DWIDTH 22 0
BBX 23 23 1 0
BITMAP
01FFFE
03FFFE
07FFFE
07801E
0F003C
0F003C
0F003C
0F003C
1E0078
1F0078
1FFFF8
0FFFF8
0FFFF0
003EF0
007CF0
00F8F0
03E1E0
07C1E0
0F81E0
1F01E0
7C03C0
F803C0
F003C0
ENDCHAR
STARTCHAR afii10034
ENCODING 242
SWIDTH 957 0
DWIDTH 22 0
BBX 23 23 2 0
BITMAP
07FFE0
07FFF8
07FFFC
07807C
0F007C
0F003C
0F003C
0F003C
1E0078
1E00F8
1E01F0
1FFFF0
3FFFC0
3FFF00
3C0000
3C0000
780000
780000
780000
780000
F00000
F00000
F00000
ENDCHAR
STARTCHAR afii10035
ENCODING 243
SWIDTH 1043 0
DWIDTH 24 0
BBX 27 23 1 0
BITMAP
0007F000
003FFE00
007FFF00
00FC1F80
03E00F80
07C007C0
078003C0
078003C0
1E000000
1E000000
1E000000
1E000000
3C000000
3C000000
3C000000
1E000F00
3C001E00
3E003E00
1F007C00
0FC1F800
0FFFE000
07FFC000
00FE0000
ENDCHAR
STARTCHAR afii10036
ENCODING 244
SWIDTH 913 0
DWIDTH 21 0
BBX 25 23 0 0
BITMAP
07FFFF80
07FFFF80
07FFFF80
00078000
000F0000
000F0000
000F0000
000F0000
001E0000
001E0000
001E0000
001E0000
003C0000
003C0000
003C0000
003C0000
00780000
00780000
00780000
00780000
00F00000
00F00000
00F00000
ENDCHAR
STARTCHAR afii10037
ENCODING 245
SWIDTH 1000 0
DWIDTH 23 0
BBX 27 23 0 0
BITMAP
078001E0
07C003E0
03E007C0
01F00F80
01E01E00
01F03E00
00F87C00
007CF800
0079E000
007FE000
003FC000
001F8000
003E0000
003C0000
007C0000
00780000
01F00000
01E00000
03C00000
07C00000
1F000000
7E000000
7C000000
ENDCHAR
STARTCHAR afii10024
ENCODING 246
SWIDTH 1391 0
DWIDTH 32 0
BBX 37 23 -1 0
BITMAP
01E01E01E0
01F01E03E0
00F81E07C0
007C1E0F80
007C3C3E00
003E3C7C00
001F3CF800
000FBDF000
000FFFC000
0007FF8000
0003FF0000
0007FF8000
001FFF8000
003EF7C000
007CF3E000
00F8F1F000
03E1E1F000
07C1E0F800
0F81E07C00
1F01E03E00
7C03C03E00
F803C01F00
F003C00F00
ENDCHAR
STARTCHAR afii10019
ENCODING 247
SWIDTH 957 0
DWIDTH 22 0
BBX 23 23 2 0
BITMAP
07FFC0
07FFF0
07FFF8
078078
0F0078
0F0078
0F0078
0F0078
1E01E0
1FFFE0
1FFFC0
1FFFE0
3C03E0
3C01E0
3C00F0
3C00F0
7801E0
7801E0
7803E0
7807C0
FFFF80
FFFF00
FFFC00
ENDCHAR
STARTCHAR afii10046
ENCODING 248
SWIDTH 1043 0
DWIDTH 24 0
BBX 24 23 2 0
BITMAP
078000
078000
078000
078000
0F0000
0F0000
0F0000
0F0000
1E0000
1E0000
1FFFF0
1FFFF8
3FFFF8
3C00F8
3C0078
3C0078
7800F0
7800F0
7800F0
7801F0
FFFFE0
FFFFC0
FFFF80
ENDCHAR
STARTCHAR afii10045
ENCODING 249
SWIDTH 1174 0
DWIDTH 27 0
BBX 28 23 1 0
BITMAP
078000F0
078000F0
078000F0
078000F0
0F0001E0
0F0001E0
0F0001E0
0F0001E0
1E0003C0
1E0003C0
1FFFF3C0
1FFFFBC0
3FFFFF80
3C00FF80
3C007F80
3C007F80
7800FF00
7800FF00
7800FF00
7801FF00
FFFFFE00
FFFFDE00
FFFF9E00
ENDCHAR
STARTCHAR afii10025
ENCODING 250
SWIDTH 870 0
DWIDTH 20 0
BBX 23 23 0 0
BITMAP
007FF0
01FFF8
03FFFC
03C07C
000078
000078
000078
000078
0000F0
0001E0
00FFC0
00FFE0
01FFE0
0003F0
0000F0
0000F0
0001E0
0001E0
7801E0
7C03E0
7FFF80
7FFF00
1FFE00
ENDCHAR
STARTCHAR afii10042
ENCODING 251
SWIDTH 1304 0
DWIDTH 30 0
BBX 33 23 0 0
BITMAP
0780780780
0780780780
0780780780
0780780780
0F00F00F00
0F00F00F00
0F00F00F00
0F00F00F00
1E01E01E00
1E01E01E00
1E01E01E00
1E01E01E00
3C03C03C00
3C03C03C00
3C03C03C00
3C03C03C00
7807807800
7807807800
7807807800
7807807800
FFFFFFF000
FFFFFFF000
FFFFFFF000
ENDCHAR
STARTCHAR afii10047
ENCODING 252
SWIDTH 1087 0
DWIDTH 25 0
BBX 26 23 1 0
BITMAP
001FC000
00FFF800
01FFFC00
03F07E00
0F803E00
0F001F00
00000F00
00000F00
00000F00
00000F00
001FFF00
001FFF00
003FFE00
00001E00
00001E00
00003C00
00007800
7800F800
7C01F000
3F07E000
3FFF8000
1FFF0000
03F80000
ENDCHAR
STARTCHAR afii10043
ENCODING 253
SWIDTH 1231 0
DWIDTH 32 0
BBX 36 26 0 -3
BITMAP
03C03C03C0
03C03C03C0
03C03C03C0
0780780780
0780780780
0780780780
0780780780
0F00F00F00
0F00F00F00
0F00F00F00
0F00F00F00
1E01E01E00
1E01E01E00
1E01E01E00
1E01E01E00
3C03C03C00
3C03C03C00
3C03C03C00
3C03C03C00
7807807800
7FFFFFFE00
7FFFFFFE00
7FFFFFFE00
0000003C00
0000003C00
0000003C00
ENDCHAR
STARTCHAR afii10041
ENCODING 254
SWIDTH 1043 0
DWIDTH 24 0
BBX 24 23 2 0
BITMAP
07800F
07800F
07800F
07800F
0F001E
0F001E
0F001E
0F001E
1F003C
1FFFFC
0FFFFC
07FFFC
000078
000078
000078
000078
0000F0
0000F0
0000F0
0000F0
0001E0
0001E0
0001E0
ENDCHAR
STARTCHAR afii10044
ENCODING 255
SWIDTH 1087 0
DWIDTH 25 0
BBX 28 23 0 0
BITMAP
07F80000
07F80000
07F80000
00780000
00F00000
00F00000
00F00000
00F00000
01E00000
01E00000
01FFFF00
01FFFF80
03FFFF80
03C00F80
03C00780
03C00780
07800F00
07800F00
07800F00
07801F00
0FFFFE00
0FFFFC00
0FFFF800
ENDCHAR
ENDFONT
